<svg width="24" height="24" viewBox="0 0 24 24" fill="none" xmlns="http://www.w3.org/2000/svg">
<path d="M11.9931 24.0002C8.71491 24.0002 8.32846 23.9829 7.04917 23.9271C6.05156 23.8943 5.06685 23.6918 4.13746 23.3283C2.52943 22.7034 1.25791 21.4332 0.632738 19.8273C0.282674 18.8958 0.0938607 17.9117 0.0743811 16.9171C-0.000244141 15.6423 -0.000244141 15.2245 -0.000244141 11.9763C-0.000244141 8.69352 0.0170796 8.31029 0.0743811 7.0395C0.0942869 6.04618 0.283093 5.06346 0.632738 4.13331C1.25723 2.52523 2.53082 1.25397 4.14145 0.630983C5.07246 0.279954 6.05685 0.0909218 7.05184 0.0721004C8.32446 0.000244141 8.7429 0.000244141 11.9931 0.000244141C15.2979 0.000244141 15.6777 0.0175429 16.937 0.0721004C17.9346 0.0910846 18.9216 0.280097 19.8554 0.630983C21.4656 1.25467 22.7389 2.52569 23.3641 4.13331C23.7201 5.07702 23.9099 6.0751 23.9251 7.08341C23.9998 8.35819 23.9998 8.7747 23.9998 12.0215C23.9998 15.2684 23.9811 15.6942 23.9251 16.9543C23.9053 17.9499 23.716 18.9349 23.3654 19.8672C22.7387 21.4742 21.4652 22.7449 19.8554 23.3695C18.9229 23.7184 17.9379 23.9069 16.9423 23.9271C15.6697 24.0002 15.2526 24.0002 11.9931 24.0002ZM11.9478 2.1067C8.68826 2.1067 8.34978 2.12267 7.07716 2.17988C6.31756 2.18993 5.5653 2.32991 4.85306 2.59372C3.80131 2.9956 2.96908 3.82325 2.56233 4.87183C2.2961 5.59079 2.1559 6.35018 2.1479 7.11668C2.07727 8.4061 2.07727 8.74409 2.07727 11.9763C2.07727 15.1699 2.08926 15.5571 2.1479 16.8386C2.15983 17.5973 2.29994 18.3486 2.56233 19.0608C2.96967 20.1087 3.80177 20.9357 4.85306 21.3376C5.56482 21.6031 6.31738 21.7432 7.07716 21.7514C8.36711 21.8259 8.70692 21.8259 11.9478 21.8259C15.2166 21.8259 15.5551 21.81 16.8171 21.7514C17.5772 21.7422 18.33 21.6022 19.0425 21.3376C20.0879 20.9322 20.9147 20.1071 21.3212 19.0634C21.587 18.3439 21.7271 17.5842 21.7357 16.8173H21.7503C21.8076 15.5452 21.8076 15.2058 21.8076 11.955C21.8076 8.70417 21.793 8.36219 21.7357 7.09139C21.7237 6.33351 21.5836 5.58309 21.3212 4.87183C20.9156 3.82669 20.0887 2.99997 19.0425 2.59372C18.3302 2.32858 17.5772 2.18856 16.8171 2.17988C15.5285 2.1067 15.1913 2.1067 11.9478 2.1067ZM11.9931 18.1227C9.50113 18.1243 7.25362 16.6266 6.29874 14.3282C5.34386 12.0298 5.8697 9.38325 7.63102 7.62295C9.39235 5.86264 12.0422 5.33527 14.3448 6.28678C16.6474 7.23829 18.1491 9.48127 18.1497 11.9696C18.146 15.3643 15.3926 18.1161 11.9931 18.1227ZM11.9931 7.97496C9.78518 7.97496 7.99531 9.76225 7.99531 11.967C7.99531 14.1717 9.78518 15.959 11.9931 15.959C14.201 15.959 15.9909 14.1717 15.9909 11.967C15.9857 9.76437 14.1989 7.98008 11.9931 7.97496ZM18.3895 7.0262C17.5972 7.02325 16.9569 6.38027 16.9583 5.58908C16.9598 4.79789 17.6025 4.15727 18.3949 4.15727C19.1872 4.15727 19.8299 4.79788 19.8314 5.58907C19.8318 5.97079 19.6799 6.33693 19.4093 6.6066C19.1388 6.87627 18.7718 7.02725 18.3895 7.0262Z" fill="#FF4545"/>
</svg>
